<?xml version="1.0" encoding="utf-8"?>
<!-- Generator: Adobe Illustrator 24.1.2, SVG Export Plug-In . SVG Version: 6.00 Build 0)  -->
<svg version="1.1" id="レイヤー_1" xmlns="http://www.w3.org/2000/svg" xmlns:xlink="http://www.w3.org/1999/xlink" x="0px"
	 y="0px" viewBox="0 0 560 64" style="enable-background:new 0 0 560 64;" xml:space="preserve">
<style type="text/css">
	.st0{fill:#FF0000;stroke:#FF0000;stroke-width:0.4498;stroke-linejoin:round;stroke-miterlimit:10;}
	.st1{fill:#FF0000;stroke:#FF0000;stroke-width:0.2249;stroke-miterlimit:10;}
	.st2{fill:#FF0000;}
	.st3{fill:#B50005;}
	.st4{fill:#FF4F4F;}
</style>
<g>
	<path class="st0" d="M101.5,33.4c2.8,1.2,4.2,3,4.2,4.5c0,0.9-0.6,1.6-1.3,1.6c-0.6,0-0.9-0.3-1-1.3c-0.3-1.6-0.7-3-1.8-4v0.6
		c0,10.2,0.1,16.8,0.1,18c0,0.8-0.6,1.2-1.7,1.2c-0.9,0-1.2-0.3-1.2-1c0-1.3,0.3-6.5,0.4-17.2c-1.7,4.3-3.5,7.2-5.9,9.6
		c-0.2,0.2-0.6-0.1-0.4-0.4c2.9-4.6,4.9-9.9,5.9-15.4h-2.2c-0.7,0-1.3,0.1-2.3,0.2l-0.4-1.4c1.1,0.2,1.8,0.3,2.7,0.3h2.5v-4
		c0-2.1,0-3.1-0.2-4.5c3.7,0.4,4.1,0.6,4.1,1.1c0,0.4-0.3,0.6-1.3,1.1v6.3h1.3c0.9-1.5,1.2-1.7,1.4-1.7c0.2,0,0.6,0.2,1.6,1.3
		c0.4,0.4,0.6,0.7,0.6,1c0,0.2-0.1,0.3-0.5,0.3h-4.4V33.4z M113.9,28.1v-2.9c0-2.7,0-4-0.2-5.3c3.8,0.4,4.1,0.6,4.1,1
		c0,0.4-0.3,0.6-1.3,1v6.2h4.8c1.4-1.8,1.7-2,1.9-2c0.3,0,0.6,0.2,2.1,1.6c0.7,0.6,0.9,0.8,0.9,1c0,0.3-0.1,0.4-0.5,0.4h-9.1v6.8h6
		c1.4-1.9,1.7-2.1,2-2.1c0.3,0,0.6,0.2,2.1,1.6c0.7,0.6,0.9,0.9,0.9,1.1c0,0.2-0.1,0.3-0.5,0.3h-10c1.3,2.6,2.7,4.6,4.6,6.5
		c1.9,1.8,4.3,3.3,7,4.3c0.2,0.1,0.1,0.4-0.1,0.4c-1,0.2-1.4,0.6-1.9,1.7c-0.1,0.3-0.3,0.4-0.5,0.4c-0.2,0-0.7-0.3-1.3-0.7
		c-1.7-1.2-3.2-2.7-4.6-4.6c-1.4-2-2.6-4.2-3.8-7.5c0.2,11.5,0.3,14.3,0.3,15.3c0,0.8-0.6,1.2-1.7,1.2c-0.9,0-1.2-0.3-1.2-1
		c0-1,0.2-5.4,0.3-12.8c-2.9,4.7-6.4,7.9-11,10.4c-0.2,0.1-0.4-0.3-0.3-0.5c4.3-3.4,7.8-7.7,10.2-13.2h-4c-0.9,0-1.5,0.1-2.6,0.2
		l-0.4-1.4c1.2,0.2,2,0.3,3,0.3h4.9v-6.8h-4.6c-1.1,2-2.4,3.7-4.1,5.2c-0.1,0.1-0.6-0.1-0.4-0.3c1.6-2.4,2.9-5.4,3.6-8.2
		c0.4-1.3,0.5-2.5,0.6-3.4c3,0.8,3.7,1.1,3.7,1.6c0,0.3-0.3,0.5-1.2,0.7c-0.4,1.3-1,2.4-1.5,3.6H113.9z"/>
	<path class="st0" d="M136.1,28.6c-0.9,0-1.6,0.1-2.7,0.2l-0.4-1.4c1.2,0.3,2,0.3,3,0.3h15.8c0-1,0-2-0.1-3.2c0-1.9-0.1-2.7-0.3-4.1
		c3.9,0.4,4.1,0.6,4.1,1.1c0,0.3-0.2,0.5-1.1,0.9c0,2,0.1,3.7,0.1,5.3h5.9c1.6-1.8,1.8-2,2-2c0.3,0,0.5,0.1,2,1.5
		c0.7,0.6,0.9,0.9,0.9,1.1c0,0.2-0.1,0.3-0.5,0.3h-10.3c0.2,5.2,0.7,8.2,1.7,11.1c1,3.2,2.8,6.2,5.3,8.5c0.9,0.8,1.4,1.1,1.7,1.1
		c0.4,0,0.8-0.6,2.2-4.4c0-0.1,0.3,0,0.3,0.1c-0.3,3.1-0.4,4.2-0.4,4.8c0,0.6,0.1,0.7,0.5,1.3c0.3,0.3,0.3,0.6,0.3,1
		c0,0.8-0.5,1.3-1.4,1.3c-0.7,0-1.8-0.4-2.9-1.1c-3.3-2.1-6.4-6-8-11.2c-1.2-3.5-1.7-7.1-2-12.4H136.1z M144.1,45.9
		c2.7-0.7,5.3-1.5,7.5-2.3c0.3-0.1,0.4,0.4,0.2,0.5c-4.2,2.6-8.7,4.2-15.6,6.3c-0.3,1.1-0.4,1.3-0.7,1.3c-0.5,0-0.9-0.7-1.7-4
		c1,0,2.3-0.2,3.4-0.4c1.3-0.2,2.6-0.4,4-0.7V36.1h-3.9c-0.9,0-1.5,0.1-2.6,0.3l-0.4-1.5c1.2,0.3,1.9,0.3,2.9,0.3h9.2
		c1.5-1.9,1.7-2,2-2c0.3,0,0.6,0.1,2.1,1.5c0.7,0.6,0.9,0.9,0.9,1.1c0,0.2-0.1,0.3-0.5,0.3h-6.7V45.9z M159.2,24.8
		c-0.6-1.1-1.3-2.2-2.6-3.1c-0.1-0.1,0-0.4,0.1-0.4c3.2,0.4,5.2,1.7,5.2,3.3c0,0.7-0.6,1.4-1.3,1.4C160.1,26,159.8,25.8,159.2,24.8z
		"/>
	<path class="st0" d="M196.8,30.5c2.5,1.6,5.4,2.8,8.6,3.5c0.2,0,0.1,0.4-0.1,0.4c-0.9,0.1-1.5,0.7-2,2.2c-0.1,0.4-0.3,0.6-0.6,0.6
		c-0.2,0-0.7-0.2-1.5-0.6c-2-1-4.3-2.6-6.2-4.2c-2.8-2.4-5-5.3-7.3-9.6c-3.8,6.8-9,11.4-17.1,15c-0.2,0.1-0.5-0.4-0.3-0.6
		c5.7-3.6,10.2-8.2,13-13.1c0.8-1.4,1.5-2.9,2-4.3c3.7,1.1,4.3,1.3,4.3,1.7c0,0.3-0.3,0.5-1.3,0.7C191,25.9,193.7,28.5,196.8,30.5z
		 M186.3,41c-1.6,3-3.4,5.9-5.6,8.6c4.9-0.1,9.8-0.4,14.6-0.8c-1-1.8-2.3-3.3-3.9-4.8c-0.1-0.1,0.1-0.4,0.3-0.4c4.8,2,8,5.3,8,7.8
		c0,1-0.6,1.9-1.5,1.9c-0.8,0-1-0.3-1.7-2.1c-0.2-0.6-0.5-1.1-0.7-1.7c-6.9,1.5-11.5,2.2-19.8,3c-0.3,1.1-0.5,1.3-0.9,1.3
		c-0.4,0-0.6-0.2-1.6-4.4c1.3,0.1,1.9,0.2,3.5,0.2c0.9,0,1.6,0,2.4,0c1.3-2.7,2.4-5.7,3.1-8.6h-7c-0.9,0-1.6,0.1-2.6,0.2l-0.4-1.4
		c1.1,0.2,1.9,0.3,2.9,0.3H198c1.7-2,1.9-2.2,2.2-2.2c0.3,0,0.5,0.1,2.3,1.6c0.8,0.7,1,0.9,1,1.1c0,0.2-0.1,0.3-0.5,0.3H186.3z
		 M179.2,33.5c1.1,0.2,1.8,0.3,2.8,0.3h8.1c1.5-1.7,1.7-1.9,2-1.9c0.3,0,0.5,0.2,2,1.5c0.7,0.6,0.9,0.8,0.9,1c0,0.2-0.1,0.3-0.5,0.3
		H182c-0.8,0-1.4,0.1-2.4,0.2L179.2,33.5z"/>
	<path class="st0" d="M217.4,43.4c0,4.3,0.1,6.6,0.1,9.2c0,0.9-0.5,1.3-1.8,1.3c-0.8,0-1.1-0.4-1.1-1.2c0.1-1.6,0.1-4.3,0.2-9.7
		c0-1.5,0-3,0-4.4c-1.8,1.4-3.7,2.6-6,3.6c-0.2,0.1-0.6-0.4-0.3-0.5c4.9-3.4,8.7-8,11.3-13.3h-7.2c-1,0-1.7,0-2.7,0.3l-0.4-1.5
		c1.3,0.3,2,0.3,3.1,0.3h2.2v-4.3c0-1.1,0-2-0.2-3.4c3.7,0.4,4.1,0.7,4.1,1.1c0,0.3-0.3,0.6-1.3,1v5.5h2.4c1-1.1,1.2-1.3,1.4-1.3
		c0.2,0,0.4,0.1,1.7,1.4c0.5,0.6,0.6,0.8,0.6,1c0,0.3-0.3,0.5-1.2,0.8c-1.3,2.6-2.9,4.8-4.7,6.7c3.9,1.2,6.1,2.9,6.1,4.7
		c0,0.8-0.6,1.5-1.3,1.5c-0.6,0-1-0.3-1.4-1.3c-0.9-1.9-1.9-3.1-3.6-4.3V43.4z M237.7,50.9c1.8-2.3,2.1-2.4,2.3-2.4
		c0.2,0,0.6,0.1,2.4,1.7c0.9,0.7,1,1,1,1.2c0,0.3-0.1,0.4-0.5,0.4h-19.5c-1.1,0-1.9,0.1-3,0.2l-0.4-1.4c1.3,0.2,2.1,0.3,3.2,0.3h6.7
		V34.4h-4.4c-1,0-1.6,0.1-2.6,0.2l-0.4-1.4c1.2,0.2,1.9,0.3,2.9,0.3h4.6v-5.6c0-3.9,0-6.2-0.2-7.6c3.9,0.4,4.3,0.7,4.3,1.1
		c0,0.3-0.3,0.6-1.4,1v11h4.4c1.7-2,2-2.2,2.2-2.2s0.5,0.2,2.2,1.6c0.8,0.7,1,0.9,1,1.1c0,0.2-0.1,0.3-0.5,0.3h-9.3v16.5H237.7z"/>
	<path class="st0" d="M275.5,24.4c1.7-2,2-2.2,2.2-2.2c0.3,0,0.5,0.2,2.3,1.6c0.8,0.7,1,0.9,1,1.1c0,0.2-0.1,0.3-0.5,0.3h-29.8
		c-0.9,0-1.6,0.1-2.6,0.2l-0.4-1.4c1.2,0.2,2,0.3,3,0.3h11.7v-2.3c0-0.6,0-1.2-0.2-2.4c3.8,0.4,4.2,0.7,4.2,1.1c0,0.3-0.3,0.6-1.3,1
		v2.6H275.5z M261.7,31.8c-0.4,4.7-2.6,6.9-7.9,8.1c-0.2,0-0.4-0.4-0.2-0.5c3.8-2,5.2-4,5.5-7.6h-6.4v7.7c0,8.2,0,11,0,13.2
		c0,0.8-0.5,1.3-1.7,1.3c-0.9,0-1.2-0.3-1.2-1.1c0-1.7,0.1-4.5,0.1-12.6c0-6,0-8.5-0.1-10.9c1.4,0.5,1.9,0.8,3.2,1.5h14.1
		c0.7-1.2,1.1-2.3,1.5-3.3c0.3-0.7,0.4-1.4,0.6-2c2.8,1,3.5,1.3,3.5,1.7c0,0.4-0.4,0.6-1.4,0.7c-1.3,1.4-1.9,2-3,2.9h6.9
		c1.2-1.2,1.4-1.4,1.6-1.4c0.3,0,0.5,0.1,1.7,1.1c0.6,0.5,0.7,0.7,0.7,1c0,0.3-0.2,0.6-1.1,1.1v4.8c0,10.2,0.1,11.8,0.1,13.1
		c0,1.5-0.5,2.2-1.5,2.7c-0.6,0.3-1.4,0.5-2,0.5c-0.4,0-0.5-0.1-0.6-0.6c-0.2-1.4-0.6-1.7-3.4-2.5c-0.2-0.1-0.2-0.6,0-0.6
		c2.1,0.2,3.1,0.3,4.2,0.3c0.4,0,0.6-0.1,0.6-0.6V31.8h-7.5v3.4c0,0.8,0.3,1,2,1c1.1,0,1.7-0.1,2-0.3c0.5-0.3,0.8-1,1.2-2.3
		c0-0.1,0.3-0.1,0.3,0v1.7c0,0.3,0.1,0.4,0.5,0.5c0.4,0.1,0.6,0.4,0.6,0.9c0,0.6-0.6,1.1-1.5,1.3c-0.7,0.2-1.8,0.3-3.7,0.3
		c-2.9,0-3.7-0.7-3.7-2.7v-3.7H261.7z M257.9,29.2c-0.3-1.3-0.9-2.3-1.8-3.4c-0.1-0.1,0-0.3,0.2-0.3c2.6,0.7,4.2,2.3,4.2,3.7
		c0,0.9-0.6,1.6-1.4,1.6C258.5,30.8,258.3,30.6,257.9,29.2z M260.2,49.3c0,0.8-0.4,1.1-1.5,1.1c-0.8,0-1-0.3-1-0.9
		c0-0.6,0.1-1.7,0.1-5.3c0-2.2,0-3.3-0.2-4.9c1.3,0.5,1.8,0.7,2.9,1.3h6.9c1.1-1.1,1.3-1.3,1.5-1.3c0.3,0,0.5,0.1,1.6,1
		c0.6,0.5,0.7,0.7,0.7,1c0,0.3-0.2,0.4-0.9,0.9v1.5c0,3,0.1,4.4,0.1,4.8c0,0.7-0.5,1.1-1.5,1.1c-0.7,0-1.1-0.3-1.1-0.9v-0.7h-7.5
		V49.3z M267.7,41.5h-7.5V47h7.5V41.5z"/>
	<path class="st0" d="M312.5,48.8c2-2.3,2.3-2.5,2.5-2.5c0.2,0,0.5,0.2,2.5,1.7c1,0.8,1.1,1,1.1,1.3c0,0.3-0.1,0.4-0.5,0.4h-29
		c-1.2,0-2.1,0.1-3.3,0.3l-0.4-1.4c1.4,0.2,2.4,0.3,3.6,0.3h11.1V25.7h-8.4c-1.2,0-2,0.1-3.2,0.2l-0.4-1.4c1.4,0.2,2.3,0.3,3.6,0.3
		h18.6c1.9-2.3,2.2-2.4,2.4-2.4c0.3,0,0.5,0.2,2.4,1.7c0.9,0.8,1.1,1,1.1,1.2c0,0.3-0.1,0.4-0.5,0.4h-12.7v23.2H312.5z"/>
	<path class="st1" d="M329.1,42.6c0,0.8,0,2,0.1,2.6c0.1,0.7,0.4,1,0.8,1.3c0.5,0.3,1.4,0.5,3.5,0.5c3.2,0,5.8-0.3,7.6-0.7
		c0.7-0.2,1.4-0.4,2.1-0.4c1.7,0,2.6,0.6,2.6,1.7c0,0.6-0.6,1-1.3,1.2c-0.8,0.2-1.8,0.3-3.2,0.4c-2,0.2-4.3,0.3-6.3,0.2
		c-3.8,0-5.7-0.5-6.6-1.4c-0.6-0.5-1.1-1.3-1.3-2c-0.2-0.8-0.3-2-0.3-3.3c0-4.4,0.1-8.9,0.1-13.3c0-1.1-0.1-1.7-0.7-2
		c-0.5-0.3-0.9-0.5-1.4-0.6c-0.2-0.1-0.4-0.2-0.4-0.4c0-0.3,1.1-0.7,1.7-0.7c0.7,0,1.6,0.4,2.8,1c1.3,0.7,1.8,1.5,1.8,2.1
		c0,0.5-0.2,0.8-0.5,1.1c-0.4,0.4-0.5,0.7-0.6,1.9c-0.1,1.2-0.2,3.3-0.2,5.5c1.9-0.5,4.2-1.3,6.2-2.2c1.3-0.6,3.4-1.6,4.7-2.4
		c0.4-0.2,0.5-0.4,0.5-0.7c0-0.2-0.4-0.7-0.9-1.1c-0.3-0.2-0.5-0.4-0.5-0.6s0.4-0.4,1-0.4c0.6,0,1.7,0.4,2.7,1.3
		c1,0.8,1.6,1.6,1.5,2.2c0,0.4-0.2,0.8-1.1,0.9c-0.4,0.1-0.7,0.2-1.3,0.4c-2,0.8-3.9,1.5-5.8,2.1c-2.4,0.7-4.4,1.2-7.1,1.7
		C329.2,39.9,329.1,41.3,329.1,42.6z M344,25.1c1.1,0.3,2.2,0.9,3.4,2c0.9,0.8,1.5,1.5,1.5,2.4c0,0.6-0.4,1.2-1.1,1.2
		c-0.5,0-0.9-0.4-1.3-1.1c-0.6-1.2-2.2-2.9-3.3-3.8c-0.2-0.1-0.3-0.3-0.3-0.4c0-0.2,0.2-0.4,0.4-0.4C343.6,25,343.9,25,344,25.1z
		 M347.4,22.5c1.1,0.3,2,0.7,3.1,1.5c0.9,0.7,1.8,1.6,1.8,2.5c0,0.8-0.5,1.3-1.1,1.3c-0.5,0-0.8-0.2-1.3-0.9
		c-0.7-1.2-2.3-2.9-3.6-3.7c-0.2-0.1-0.3-0.2-0.3-0.4c0-0.2,0.2-0.4,0.4-0.4C346.8,22.3,347.1,22.4,347.4,22.5z"/>
	<path class="st1" d="M360.8,33.9c1.9,0.7,2.9,1.7,2.9,3c0,1.2-0.7,1.8-1.7,1.8c-0.5,0-0.9-0.5-1.5-1.2c-1-1.3-2.3-2.5-4-3.5
		c-0.3-0.2-0.4-0.3-0.4-0.6s0.3-0.4,0.9-0.4C358,33,359.6,33.5,360.8,33.9z M363.9,50c-0.2,0.4-0.8,0.8-1.3,0.8
		c-0.7,0-1.2-0.2-2.4-1.5c-1.2-1.3-1.8-2.5-1.8-3.2c0-0.6,0.2-1.2,0.5-1.2c0.2,0,0.5,0.4,0.7,0.7c0.5,0.6,1.3,1.5,1.9,1.5
		c0.4,0,0.9-0.1,2-0.7c3.4-1.8,7.3-4.3,11-7.1c3.2-2.4,5.8-4.8,9.1-7.9c0.4-0.4,0.7-0.7,0.9-0.7c0.3,0,0.6,0.2,0.6,0.5
		c0,0.2,0,0.4-0.4,0.8c-2.1,3-5.1,5.9-8.7,9c-3.5,3-7.2,5.8-11.2,8.2C364.4,49.4,364.1,49.7,363.9,50z M366,26.2
		c1.5,0.7,2.3,1.7,2.3,2.9c0,1.1-0.7,1.9-1.6,1.9c-0.6,0-0.9-0.4-1.6-1.5c-0.8-1.3-2.1-2.7-3.7-3.7c-0.2-0.2-0.4-0.3-0.4-0.5
		c0-0.2,0.3-0.4,0.7-0.4C363,24.9,364.7,25.5,366,26.2z M379.4,22.6c1.1,0.3,2.2,0.9,3.4,2c0.9,0.8,1.5,1.5,1.5,2.4
		c0,0.6-0.4,1.2-1.1,1.2c-0.5,0-0.9-0.4-1.3-1.1c-0.6-1.2-2.2-2.9-3.3-3.8c-0.2-0.1-0.3-0.3-0.3-0.4c0-0.2,0.2-0.4,0.4-0.4
		C379,22.5,379.3,22.6,379.4,22.6z M382.8,20c1.1,0.3,2,0.7,3.1,1.5c0.9,0.7,1.8,1.6,1.8,2.5c0,0.8-0.5,1.3-1.1,1.3
		c-0.5,0-0.8-0.2-1.3-0.9c-0.7-1.2-2.3-2.9-3.6-3.7c-0.2-0.1-0.3-0.2-0.3-0.4c0-0.2,0.2-0.4,0.4-0.4C382.2,19.9,382.5,19.9,382.8,20
		z"/>
	<path class="st1" d="M405.7,38.1c-4.4,4.1-9,7.6-13.9,10c-0.6,0.3-1.1,0.5-1.3,0.5c-0.3,0-0.4-0.3-0.4-0.5c0-0.2,0.1-0.5,0.5-0.7
		c3.7-2.4,7.4-5.2,10.9-8.5c3.1-2.8,5.6-5.4,8-8.4c0.2-0.3,0.4-0.5,0.4-0.6c0-0.1-0.1-0.1-0.2-0.1c-0.1,0-0.4,0.1-0.6,0.1
		c-3.8,0.9-6.5,1.7-9.4,2.7c-0.6,0.2-1,0.4-1.3,0.6c-0.3,0.2-0.6,0.4-0.9,0.4c-0.8,0-1.4-0.4-2.4-1.6c-0.5-0.6-0.9-1.3-0.9-2
		c0-0.8,0.2-1.1,0.4-1.1c0.2,0,0.3,0.2,0.5,0.5c0.9,1,1.7,1.5,2.1,1.5c0.5,0,1.2-0.1,1.8-0.3c3.5-0.7,6.5-1.4,9.8-2.2
		c0.8-0.2,1-0.4,1.3-0.7c0.3-0.3,0.6-0.6,1-0.6c0.4,0,0.9,0.2,1.8,0.9c1,0.9,1.5,1.3,1.5,1.9c0,0.5-0.3,0.7-1,0.9
		c-0.6,0.2-1,0.5-1.6,1.1c-1.4,1.6-2.8,3-4.4,4.5c0.5,0.4,0.8,0.8,0.8,1.2c0,0.2,0,0.4-0.1,0.6c0,0.3,0,0.5,0,0.7c0,2,0,4.7,0,6.7
		c0,2.6,0.1,5.4,0.1,6.5c0,1.1-0.5,1.5-1.3,1.5c-0.6,0-1.1-0.5-1.4-1.1c-0.4-0.9-0.5-1.7-0.5-2.3c0-0.3,0.1-0.7,0.3-1.1
		c0.2-0.4,0.2-0.7,0.2-1.8c0-1.1,0.1-2.2,0.1-3.3L405.7,38.1z M406.7,20.8c1.5,0.7,3,1.9,3,3.5c0,1.2-0.6,1.8-1.5,1.8
		c-0.8,0-1.1-0.4-1.6-1.3c-0.7-1.3-2-2.9-3.3-3.8c-0.4-0.2-0.6-0.4-0.6-0.6c0-0.2,0.2-0.4,0.6-0.4C404,19.9,405.3,20.2,406.7,20.8z
		 M416.4,38.1c1.8,0.9,3.2,2.2,3.2,3.7c0,1.1-0.8,1.9-1.6,1.9c-0.6,0-1.1-0.4-1.7-1.3c-1.1-1.8-3.1-3.7-5.1-4.8
		c-0.2-0.1-0.4-0.3-0.4-0.5c0-0.2,0.3-0.4,0.6-0.4C412.8,36.8,414.7,37.3,416.4,38.1z"/>
	<path class="st1" d="M450.1,43.4c1.4,1.3,2.4,2.6,2.4,3.7c0,1.1-0.7,1.7-1.6,1.7c-0.6,0-1.1-0.4-1.7-1.2c-2.6-3.7-5.5-6.5-9.3-8.7
		c-2.4,2.6-4.9,4.8-7.7,6.6c-2.6,1.8-5.4,3.2-7.7,4c-0.4,0.2-0.8,0.3-1.1,0.3c-0.2,0-0.4-0.3-0.4-0.5c0-0.2,0.2-0.4,0.4-0.6
		c4.7-2.6,8.8-5.5,12.7-9.6c2.9-3,5.1-5.9,7.4-10c0.1-0.2,0.2-0.3,0.2-0.4c0-0.1-0.1-0.1-0.3-0.1c-1.8,0.1-6.3,0.7-10.3,1.5
		c-0.8,0.2-1.3,0.3-1.6,0.5c-0.4,0.2-0.6,0.4-1.1,0.4c-0.7,0-1.6-0.7-2.4-1.8c-0.7-1-1.1-1.6-1.1-2.2c0-0.4,0.2-0.8,0.4-0.8
		c0.2,0,0.4,0.2,0.7,0.5c1,1,1.7,1.5,2.6,1.5c0.6,0,2-0.1,3.1-0.2c3.1-0.3,6.3-0.6,9.2-1c0.7-0.1,1-0.3,1.3-0.6
		c0.3-0.3,0.6-0.4,0.9-0.4c0.6,0,1,0.2,1.8,0.9c1.1,1,1.4,1.4,1.4,1.9c0,0.4-0.2,0.6-1,0.9c-0.6,0.2-1.2,0.7-1.7,1.5
		c-1.1,1.7-3,4.4-5,6.8C444.4,39.4,447.8,41.2,450.1,43.4z"/>
	<path class="st1" d="M468.7,32.2c-0.4-0.3-0.5-0.4-0.5-0.5c0-0.3,0.6-0.5,1-0.5c0.6,0,1.3,0.3,2.3,0.9c1.2,0.8,2.3,1.9,2.3,3
		c0,0.6-0.3,0.9-1,1.2c-0.3,0.1-0.6,0.4-1.1,0.8c-1.7,1.7-3.3,3.2-5.4,4.7c-2.2,1.6-4.6,3.1-7,4.1c-0.5,0.2-0.8,0.3-1,0.3
		c-0.3,0-0.5-0.2-0.5-0.5c0-0.2,0.2-0.4,0.6-0.6c2.4-1.6,4.6-3.3,6.5-5c1.5-1.5,2.9-2.9,3.9-4.2c0.7-1,1.1-1.6,1.1-2.1
		C470,33.3,469.7,32.9,468.7,32.2z M488.7,42.4c-0.8,0-1.3-0.6-1.8-1.5c-1.1-2.4-2-4-3.3-5.5c-1.2-1.4-2.6-2.6-4.1-3.7
		c-0.5-0.3-0.7-0.6-0.7-0.7c0-0.3,0.2-0.5,0.5-0.5c0.3,0,0.6,0.1,1.1,0.3c2.3,0.9,4.4,2.3,6.4,4.1c1.7,1.5,3.6,4,3.6,5.5
		C490.3,41.7,489.8,42.4,488.7,42.4z M484.4,25c1.1,0.3,2.2,0.9,3.4,2c0.9,0.8,1.5,1.5,1.5,2.4c0,0.6-0.4,1.2-1.1,1.2
		c-0.5,0-0.9-0.4-1.3-1.1c-0.6-1.2-2.2-2.9-3.3-3.8c-0.2-0.1-0.3-0.3-0.3-0.4c0-0.2,0.2-0.4,0.4-0.4C484,24.9,484.3,25,484.4,25z
		 M487.8,22.4c1.1,0.3,2,0.7,3.1,1.5c0.9,0.7,1.8,1.6,1.8,2.5c0,0.8-0.5,1.3-1.1,1.3c-0.5,0-0.8-0.2-1.3-0.9
		c-0.7-1.2-2.3-2.9-3.6-3.7c-0.2-0.1-0.3-0.2-0.3-0.4c0-0.2,0.2-0.4,0.4-0.4C487.2,22.3,487.5,22.3,487.8,22.4z"/>
	<path class="st1" d="M499.9,26.7c1.7,0.4,3.2,1.1,4.4,1.8c1.7,1.1,2.4,2.2,2.4,3.6c0,1-0.6,1.7-1.5,1.7c-0.8,0-1.2-0.3-1.7-1.3
		c-0.4-0.7-0.9-1.6-1.7-2.6c-0.8-1-1.8-1.8-2.8-2.5c-0.2-0.1-0.3-0.3-0.3-0.5s0.2-0.3,0.4-0.3C499.2,26.6,499.5,26.6,499.9,26.7z
		 M525.1,28.1c0,0.2-0.1,0.4-0.3,0.7c-2.3,3.7-5.4,7.3-8.7,10.5c-3.2,3.1-6.6,5.8-10.3,8.5c-0.4,0.3-0.8,0.7-1,0.9
		c-0.3,0.5-0.7,0.8-1.3,0.8c-0.9,0-1.7-0.7-2.5-1.5c-1.2-1.3-1.7-2.2-1.7-3.1c0-0.6,0.2-1,0.4-1c0.2,0,0.3,0.1,0.6,0.4
		c0.8,0.9,1.3,1.4,1.9,1.4c0.4,0,1-0.2,1.8-0.7c3.5-2,7.1-4.6,10.5-7.6c3.5-3.1,6.9-6.3,9.4-9.5c0.2-0.2,0.4-0.4,0.6-0.4
		C524.8,27.6,525.1,27.8,525.1,28.1z"/>
	<path class="st1" d="M533.1,34.8c-1.8,1.8-3.8,3.5-5.7,4.7c-0.4,0.2-0.6,0.3-0.7,0.3c-0.3,0-0.5-0.2-0.5-0.6c0-0.3,0.4-0.7,0.9-1.2
		c1.9-1.8,4-4,5.7-6.2c1.3-1.7,2.5-3.5,3.5-5.2c0.6-1.1,0.9-1.8,0.9-2.3c0-0.4-0.4-0.9-1.4-1.5c-0.3-0.2-0.5-0.2-0.5-0.4
		c0-0.2,0.7-0.5,1.4-0.5c0.6,0,1.8,0.6,3,1.4c0.9,0.6,1.3,1.1,1.3,1.7c0,0.4-0.2,0.8-0.8,1.1c-0.4,0.2-0.6,0.5-1.7,2
		c0.2,0,0.3,0,0.5,0c0.5,0,1.3-0.1,2.2-0.2c1.8-0.3,3-0.5,4.3-0.7c0.4-0.1,0.7-0.3,0.9-0.5c0.3-0.3,0.6-0.5,0.9-0.5
		c0.5,0,1.2,0.4,2,1.1c0.9,0.7,1.5,1.3,1.5,1.9c0,0.5-0.4,0.8-0.9,1c-0.7,0.3-0.8,0.4-1.3,1.1c-2.2,4-5,7.9-7.9,11.1
		c-3.3,3.7-7.7,7.3-13.3,9.9c-0.3,0.1-0.5,0.2-0.7,0.2s-0.5-0.3-0.5-0.5s0.2-0.4,0.5-0.6c4.7-2.9,9.1-6.8,12.2-10.5
		c2.8-3.4,5.4-7.2,7.4-11.5c0-0.1,0.1-0.2,0.1-0.3c0-0.1-0.1-0.2-0.2-0.2c-0.6,0-2.8,0.4-4.3,0.7c-0.9,0.2-1.6,0.3-2.3,0.3
		c-0.6,0-1.3-0.2-2-0.5C536.4,31.1,534.9,33,533.1,34.8z"/>
</g>
<g>
	<polygon class="st2" points="68.2,12.5 36.1,2.6 3.9,12.5 3.9,18.2 6.1,18.2 6.1,19.9 66,19.9 66,18.2 68.2,18.2 	"/>
	<polygon class="st3" points="68.2,12.5 36.1,2.6 35.8,19.9 66,19.9 66,18.2 68.2,18.2 	"/>
	<polyline class="st2" points="68.2,58 66,58 66,53.5 6.1,53.5 6.1,58 3.9,58 3.9,62.6 68.2,62.6 	"/>
	<polyline class="st3" points="68.2,58 66,58 66,53.5 35.8,53.5 35.8,62.6 68.2,62.6 	"/>
	<g>
		<path class="st4" d="M9.2,40l0.3,0.2c0,0.2,0,0.4,0.1,0.6c0.2,0.3,0.5,0.6,1,0.9c0.5,0.3,1,0.6,1.6,0.8c0.6,0.2,1.3,0.4,1.9,0.6
			c0.7,0.1,1.3,0.2,1.8,0.2c0.4,0,0.9,0,1.5-0.1c0.6-0.1,1.2-0.2,1.8-0.4c0.6-0.2,1.1-0.5,1.6-0.9c0.4-0.4,0.7-0.8,0.7-1.4
			c0-0.6-0.2-1-0.6-1.3c-0.4-0.3-0.9-0.5-1.6-0.6c-0.7-0.1-1.4-0.2-2.3-0.3c-0.8,0-1.7-0.1-2.6-0.2c-0.9-0.1-1.7-0.2-2.6-0.4
			c-0.8-0.2-1.6-0.5-2.3-0.9s-1.2-1-1.6-1.7c-0.4-0.7-0.6-1.7-0.6-2.9c0-0.8,0.2-1.6,0.5-2.4c0.3-0.8,0.9-1.5,1.6-2.1
			c0.7-0.6,1.6-1.1,2.6-1.5c1.1-0.4,2.3-0.6,3.8-0.6c1.2,0,2.3,0.1,3.2,0.3c0.9,0.2,1.7,0.4,2.4,0.7c0.7,0.2,1.2,0.5,1.7,0.7
			c0.5,0.2,0.8,0.3,1.1,0.3c0.3,0,0.6-0.1,0.7-0.2l0.4,0.3L23,32.7l-0.3-0.2c0-0.4-0.1-0.7-0.3-0.9c-0.2-0.3-0.5-0.6-0.9-0.9
			c-0.4-0.3-0.9-0.6-1.5-0.8c-0.6-0.2-1.2-0.4-1.9-0.6c-0.7-0.1-1.3-0.2-2-0.2c-0.5,0-1,0-1.6,0.1c-0.5,0.1-1,0.2-1.5,0.4
			c-0.4,0.2-0.8,0.4-1.1,0.7c-0.3,0.3-0.4,0.7-0.4,1.1c0,0.6,0.2,1.1,0.6,1.4c0.4,0.3,0.9,0.5,1.6,0.7c0.7,0.2,1.4,0.3,2.3,0.3
			c0.8,0.1,1.7,0.1,2.6,0.2c0.9,0.1,1.7,0.2,2.6,0.4c0.8,0.2,1.6,0.5,2.3,0.9c0.7,0.4,1.2,1,1.6,1.7c0.4,0.7,0.6,1.7,0.6,2.8
			c0,1.3-0.3,2.4-1,3.3c-0.6,0.9-1.4,1.5-2.4,2c-1,0.5-2,0.8-3.1,1c-1.1,0.2-2.1,0.3-3.1,0.3c-1.3,0-2.4-0.1-3.3-0.3
			c-0.9-0.2-1.6-0.4-2.2-0.6c-0.6-0.2-1.1-0.5-1.4-0.7c-0.3-0.2-0.7-0.3-0.9-0.3c-0.2,0-0.3,0.1-0.5,0.3l-0.5-0.3L9.2,40z"/>
	</g>
	<g>
		<path class="st4" d="M37.5,26.6c1,0,2,0.1,3,0.3c1,0.2,1.8,0.5,2.6,0.9c0.7,0.4,1.3,0.9,1.8,1.6c0.4,0.7,0.7,1.5,0.7,2.4
			c0,1.2-0.3,2.1-1,2.7c-0.7,0.6-1.4,1.1-2.3,1.5v0.1c1.1,0.3,1.9,0.9,2.7,1.7c0.7,0.8,1.1,1.8,1.1,3.3c0,0.7-0.1,1.4-0.4,2.1
			c-0.3,0.6-0.7,1.2-1.3,1.7c-0.6,0.5-1.3,0.8-2.1,1.1c-0.8,0.3-1.8,0.4-2.8,0.4H26.9v-0.7c0.6,0,0.9-0.2,0.9-0.7V28
			c0-0.4-0.3-0.7-0.9-0.7v-0.7H37.5z M38.1,34.3c1,0,1.8-0.1,2.5-0.4c0.7-0.3,1-0.9,1-1.8c0-0.9-0.3-1.5-1-1.8
			c-0.7-0.3-1.5-0.4-2.5-0.4h-6.4v4.5H38.1z M38.1,42.8c1.4,0,2.4-0.2,3-0.7c0.6-0.5,0.9-1.1,0.9-1.9c0-0.8-0.3-1.4-0.9-1.9
			c-0.6-0.5-1.6-0.7-3-0.7h-6.4v5.3H38.1z"/>
	</g>
	<g>
		<path class="st4" d="M57.1,26.6c1,0,2,0.1,3,0.3c1,0.2,1.8,0.5,2.6,0.9c0.7,0.4,1.3,0.9,1.8,1.6c0.4,0.7,0.7,1.5,0.7,2.4
			c0,1.2-0.3,2.1-1,2.7c-0.7,0.6-1.4,1.1-2.3,1.5v0.1c1.1,0.3,1.9,0.9,2.7,1.7c0.7,0.8,1.1,1.8,1.1,3.3c0,0.7-0.1,1.4-0.4,2.1
			c-0.3,0.6-0.7,1.2-1.3,1.7c-0.6,0.5-1.3,0.8-2.1,1.1c-0.8,0.3-1.8,0.4-2.8,0.4H46.6v-0.7c0.6,0,0.9-0.2,0.9-0.7V28
			c0-0.4-0.3-0.7-0.9-0.7v-0.7H57.1z M57.8,34.3c1,0,1.8-0.1,2.5-0.4c0.7-0.3,1-0.9,1-1.8c0-0.9-0.3-1.5-1-1.8
			c-0.7-0.3-1.5-0.4-2.5-0.4h-6.4v4.5H57.8z M57.8,42.8c1.4,0,2.4-0.2,3-0.7c0.6-0.5,0.9-1.1,0.9-1.9c0-0.8-0.3-1.4-0.9-1.9
			c-0.6-0.5-1.6-0.7-3-0.7h-6.4v5.3H57.8z"/>
	</g>
</g>
</svg>
